<svg xmlns="http://www.w3.org/2000/svg" viewBox="0 0 64 64">
  <title>Biểu trưng Bảo tàng Chứng tích Chiến tranh</title>
  <circle cx="32" cy="32" r="31" fill="#D3CFC2"/>
  <g fill="#0A4B7F">
    <path d="M25 8 32 12 39 8v12l-4 3v5h4v12c0 9-2.8 15-7 17-4.2-2-7-8-7-17V28h4v-5l-4-3Z"/>
    <path d="m10 20 7 5 7-5v9l-3 2v4h3v8c0 7-2.8 11.5-7 13-4.2-1.5-7-6-7-13V35h3v-4l-3-2Z"/>
    <path d="m40 20 7 5 7-5v9l-3 2v4h3v8c0 7-2.8 11.5-7 13-4.2-1.5-7-6-7-13V35h3v-4l-3-2Z"/>
  </g>
  <path d="M8 27c6 5 12 7 18 7 1-5 4-8 8-8 4 0 7 3 7 7 0 2-.5 4-1.5 5.5C45 36 50.5 32 56 27c-2 9-7.5 16-16.5 20l-2 7-5-5c-8.5 0-15-3.5-19.5-10.5C10.5 34.5 9 30.5 8 27Z" fill="#D3CFC2"/>
  <circle cx="31" cy="30" r="1.2" fill="#0A4B7F"/>
</svg>
